<mxfile host="app.diagrams.net" modified="2024-03-02T14:41:04.353Z" agent="Mozilla/5.0 (Macintosh; Intel Mac OS X 10_15_7) AppleWebKit/537.36 (KHTML, like Gecko) Chrome/122.0.0.0 Safari/537.36" etag="_UQdj_Xtaidkz8Bu7sb2" version="24.0.0" type="github">
  <diagram id="prtHgNgQTEPvFCAcTncT" name="Page-1">
    <mxGraphModel dx="1004" dy="523" grid="1" gridSize="10" guides="1" tooltips="1" connect="1" arrows="1" fold="1" page="1" pageScale="1" pageWidth="827" pageHeight="1169" math="0" shadow="0">
      <root>
        <mxCell id="0" />
        <mxCell id="1" parent="0" />
        <mxCell id="dNxyNK7c78bLwvsdeMH5-19" value="Cancelamento" style="swimlane;html=1;childLayout=stackLayout;resizeParent=1;resizeParentMax=0;horizontal=0;startSize=20;horizontalStack=0;" parent="1" vertex="1">
          <mxGeometry x="120" y="120" width="690" height="360" as="geometry" />
        </mxCell>
        <mxCell id="dNxyNK7c78bLwvsdeMH5-27" value="" style="edgeStyle=orthogonalEdgeStyle;rounded=0;orthogonalLoop=1;jettySize=auto;html=1;dashed=1;endArrow=none;endFill=0;" parent="dNxyNK7c78bLwvsdeMH5-19" source="dNxyNK7c78bLwvsdeMH5-24" target="dNxyNK7c78bLwvsdeMH5-26" edge="1">
          <mxGeometry relative="1" as="geometry" />
        </mxCell>
        <mxCell id="dNxyNK7c78bLwvsdeMH5-20" value="Cliente" style="swimlane;html=1;startSize=20;horizontal=0;" parent="dNxyNK7c78bLwvsdeMH5-19" vertex="1">
          <mxGeometry x="20" width="670" height="120" as="geometry" />
        </mxCell>
        <mxCell id="dNxyNK7c78bLwvsdeMH5-25" value="" style="edgeStyle=orthogonalEdgeStyle;rounded=0;orthogonalLoop=1;jettySize=auto;html=1;" parent="dNxyNK7c78bLwvsdeMH5-20" source="dNxyNK7c78bLwvsdeMH5-23" target="dNxyNK7c78bLwvsdeMH5-24" edge="1">
          <mxGeometry relative="1" as="geometry" />
        </mxCell>
        <mxCell id="dNxyNK7c78bLwvsdeMH5-23" value="" style="ellipse;whiteSpace=wrap;html=1;fillColor=#d5e8d4;strokeColor=#82b366;" parent="dNxyNK7c78bLwvsdeMH5-20" vertex="1">
          <mxGeometry x="40" y="40" width="40" height="40" as="geometry" />
        </mxCell>
        <mxCell id="dNxyNK7c78bLwvsdeMH5-24" value="Cliente solicita o cancelamento" style="rounded=0;whiteSpace=wrap;html=1;fontFamily=Helvetica;fontSize=12;fontColor=#000000;align=center;" parent="dNxyNK7c78bLwvsdeMH5-20" vertex="1">
          <mxGeometry x="120" y="30" width="80" height="60" as="geometry" />
        </mxCell>
        <mxCell id="i0STGZXZ2wKi7M2kmN0H-50" value="" style="rounded=0;whiteSpace=wrap;html=1;fillColor=#fff2cc;strokeColor=#d6b656;" vertex="1" parent="dNxyNK7c78bLwvsdeMH5-20">
          <mxGeometry x="220.0005263157896" y="30.000000000000114" width="120" height="60" as="geometry" />
        </mxCell>
        <mxCell id="dNxyNK7c78bLwvsdeMH5-21" value="Sistema" style="swimlane;html=1;startSize=20;horizontal=0;" parent="dNxyNK7c78bLwvsdeMH5-19" vertex="1">
          <mxGeometry x="20" y="120" width="670" height="120" as="geometry" />
        </mxCell>
        <mxCell id="dNxyNK7c78bLwvsdeMH5-26" value="Processa o pedido de cancelamento" style="rounded=0;whiteSpace=wrap;html=1;fontFamily=Helvetica;fontSize=12;fontColor=#000000;align=center;" parent="dNxyNK7c78bLwvsdeMH5-21" vertex="1">
          <mxGeometry x="120" y="30" width="80" height="60" as="geometry" />
        </mxCell>
        <mxCell id="i0STGZXZ2wKi7M2kmN0H-46" value="" style="rhombus;whiteSpace=wrap;html=1;fillColor=#ffe6cc;strokeColor=#d79b00;" vertex="1" parent="dNxyNK7c78bLwvsdeMH5-21">
          <mxGeometry x="250" y="30" width="60" height="60.16" as="geometry" />
        </mxCell>
        <mxCell id="i0STGZXZ2wKi7M2kmN0H-45" style="edgeStyle=orthogonalEdgeStyle;rounded=0;orthogonalLoop=1;jettySize=auto;html=1;exitX=1;exitY=0.5;exitDx=0;exitDy=0;" edge="1" parent="dNxyNK7c78bLwvsdeMH5-21" source="dNxyNK7c78bLwvsdeMH5-26" target="i0STGZXZ2wKi7M2kmN0H-46">
          <mxGeometry relative="1" as="geometry">
            <mxPoint x="280" y="60.157894736842195" as="targetPoint" />
          </mxGeometry>
        </mxCell>
        <mxCell id="dNxyNK7c78bLwvsdeMH5-22" value="Prestador de serviço" style="swimlane;html=1;startSize=20;horizontal=0;" parent="dNxyNK7c78bLwvsdeMH5-19" vertex="1">
          <mxGeometry x="20" y="240" width="670" height="120" as="geometry" />
        </mxCell>
        <mxCell id="i0STGZXZ2wKi7M2kmN0H-49" style="edgeStyle=orthogonalEdgeStyle;rounded=0;orthogonalLoop=1;jettySize=auto;html=1;exitX=0.5;exitY=0;exitDx=0;exitDy=0;" edge="1" parent="dNxyNK7c78bLwvsdeMH5-19" source="i0STGZXZ2wKi7M2kmN0H-46" target="i0STGZXZ2wKi7M2kmN0H-50">
          <mxGeometry relative="1" as="geometry">
            <mxPoint x="300.2105263157896" y="80.00000000000011" as="targetPoint" />
          </mxGeometry>
        </mxCell>
        <mxCell id="i0STGZXZ2wKi7M2kmN0H-23" value="Cancelamento" style="swimlane;html=1;childLayout=stackLayout;resizeParent=1;resizeParentMax=0;horizontal=0;startSize=20;horizontalStack=0;" vertex="1" parent="1">
          <mxGeometry x="120" y="530" width="690" height="360" as="geometry" />
        </mxCell>
        <mxCell id="i0STGZXZ2wKi7M2kmN0H-24" value="" style="edgeStyle=orthogonalEdgeStyle;rounded=0;orthogonalLoop=1;jettySize=auto;html=1;dashed=1;endArrow=none;endFill=0;" edge="1" parent="i0STGZXZ2wKi7M2kmN0H-23" source="i0STGZXZ2wKi7M2kmN0H-31" target="i0STGZXZ2wKi7M2kmN0H-37">
          <mxGeometry relative="1" as="geometry" />
        </mxCell>
        <mxCell id="i0STGZXZ2wKi7M2kmN0H-25" style="edgeStyle=orthogonalEdgeStyle;rounded=0;orthogonalLoop=1;jettySize=auto;html=1;endArrow=classic;endFill=1;" edge="1" parent="i0STGZXZ2wKi7M2kmN0H-23" source="i0STGZXZ2wKi7M2kmN0H-38" target="i0STGZXZ2wKi7M2kmN0H-33">
          <mxGeometry relative="1" as="geometry" />
        </mxCell>
        <mxCell id="i0STGZXZ2wKi7M2kmN0H-26" style="edgeStyle=orthogonalEdgeStyle;rounded=0;orthogonalLoop=1;jettySize=auto;html=1;endArrow=classic;endFill=1;" edge="1" parent="i0STGZXZ2wKi7M2kmN0H-23" source="i0STGZXZ2wKi7M2kmN0H-38" target="i0STGZXZ2wKi7M2kmN0H-41">
          <mxGeometry relative="1" as="geometry" />
        </mxCell>
        <mxCell id="i0STGZXZ2wKi7M2kmN0H-27" style="edgeStyle=orthogonalEdgeStyle;rounded=0;orthogonalLoop=1;jettySize=auto;html=1;endArrow=classic;endFill=1;" edge="1" parent="i0STGZXZ2wKi7M2kmN0H-23" source="i0STGZXZ2wKi7M2kmN0H-37" target="i0STGZXZ2wKi7M2kmN0H-42">
          <mxGeometry relative="1" as="geometry">
            <Array as="points">
              <mxPoint x="180" y="340" />
              <mxPoint x="400" y="340" />
            </Array>
          </mxGeometry>
        </mxCell>
        <mxCell id="i0STGZXZ2wKi7M2kmN0H-28" value="Cliente" style="swimlane;html=1;startSize=20;horizontal=0;" vertex="1" parent="i0STGZXZ2wKi7M2kmN0H-23">
          <mxGeometry x="20" width="670" height="120" as="geometry" />
        </mxCell>
        <mxCell id="i0STGZXZ2wKi7M2kmN0H-29" value="" style="edgeStyle=orthogonalEdgeStyle;rounded=0;orthogonalLoop=1;jettySize=auto;html=1;" edge="1" parent="i0STGZXZ2wKi7M2kmN0H-28" source="i0STGZXZ2wKi7M2kmN0H-30" target="i0STGZXZ2wKi7M2kmN0H-31">
          <mxGeometry relative="1" as="geometry" />
        </mxCell>
        <mxCell id="i0STGZXZ2wKi7M2kmN0H-30" value="" style="ellipse;whiteSpace=wrap;html=1;fillColor=#d5e8d4;strokeColor=#82b366;" vertex="1" parent="i0STGZXZ2wKi7M2kmN0H-28">
          <mxGeometry x="40" y="40" width="40" height="40" as="geometry" />
        </mxCell>
        <mxCell id="i0STGZXZ2wKi7M2kmN0H-31" value="" style="rounded=0;whiteSpace=wrap;html=1;fontFamily=Helvetica;fontSize=12;fontColor=#000000;align=center;" vertex="1" parent="i0STGZXZ2wKi7M2kmN0H-28">
          <mxGeometry x="120" y="30" width="80" height="60" as="geometry" />
        </mxCell>
        <mxCell id="i0STGZXZ2wKi7M2kmN0H-32" value="" style="edgeStyle=orthogonalEdgeStyle;rounded=0;orthogonalLoop=1;jettySize=auto;html=1;endArrow=classic;endFill=1;" edge="1" parent="i0STGZXZ2wKi7M2kmN0H-28" source="i0STGZXZ2wKi7M2kmN0H-33" target="i0STGZXZ2wKi7M2kmN0H-34">
          <mxGeometry relative="1" as="geometry" />
        </mxCell>
        <mxCell id="i0STGZXZ2wKi7M2kmN0H-33" value="" style="rounded=0;whiteSpace=wrap;html=1;fontFamily=Helvetica;fontSize=12;fontColor=#000000;align=center;" vertex="1" parent="i0STGZXZ2wKi7M2kmN0H-28">
          <mxGeometry x="240" y="30" width="80" height="60" as="geometry" />
        </mxCell>
        <mxCell id="i0STGZXZ2wKi7M2kmN0H-34" value="" style="ellipse;whiteSpace=wrap;html=1;" vertex="1" parent="i0STGZXZ2wKi7M2kmN0H-28">
          <mxGeometry x="360" y="40" width="40" height="40" as="geometry" />
        </mxCell>
        <mxCell id="i0STGZXZ2wKi7M2kmN0H-35" value="Sistema" style="swimlane;html=1;startSize=20;horizontal=0;" vertex="1" parent="i0STGZXZ2wKi7M2kmN0H-23">
          <mxGeometry x="20" y="120" width="670" height="120" as="geometry" />
        </mxCell>
        <mxCell id="i0STGZXZ2wKi7M2kmN0H-36" value="" style="edgeStyle=orthogonalEdgeStyle;rounded=0;orthogonalLoop=1;jettySize=auto;html=1;endArrow=classic;endFill=1;" edge="1" parent="i0STGZXZ2wKi7M2kmN0H-35" source="i0STGZXZ2wKi7M2kmN0H-37" target="i0STGZXZ2wKi7M2kmN0H-38">
          <mxGeometry relative="1" as="geometry" />
        </mxCell>
        <mxCell id="i0STGZXZ2wKi7M2kmN0H-37" value="" style="rounded=0;whiteSpace=wrap;html=1;fontFamily=Helvetica;fontSize=12;fontColor=#000000;align=center;" vertex="1" parent="i0STGZXZ2wKi7M2kmN0H-35">
          <mxGeometry x="120" y="30" width="80" height="60" as="geometry" />
        </mxCell>
        <mxCell id="i0STGZXZ2wKi7M2kmN0H-38" value="" style="rhombus;whiteSpace=wrap;html=1;fontFamily=Helvetica;fontSize=12;fontColor=#000000;align=center;" vertex="1" parent="i0STGZXZ2wKi7M2kmN0H-35">
          <mxGeometry x="260" y="40" width="40" height="40" as="geometry" />
        </mxCell>
        <mxCell id="i0STGZXZ2wKi7M2kmN0H-39" value="Prestador de serviço" style="swimlane;html=1;startSize=20;horizontal=0;" vertex="1" parent="i0STGZXZ2wKi7M2kmN0H-23">
          <mxGeometry x="20" y="240" width="670" height="120" as="geometry" />
        </mxCell>
        <mxCell id="i0STGZXZ2wKi7M2kmN0H-40" value="" style="edgeStyle=orthogonalEdgeStyle;rounded=0;orthogonalLoop=1;jettySize=auto;html=1;endArrow=classic;endFill=1;" edge="1" parent="i0STGZXZ2wKi7M2kmN0H-39" source="i0STGZXZ2wKi7M2kmN0H-41" target="i0STGZXZ2wKi7M2kmN0H-42">
          <mxGeometry relative="1" as="geometry" />
        </mxCell>
        <mxCell id="i0STGZXZ2wKi7M2kmN0H-41" value="" style="rounded=0;whiteSpace=wrap;html=1;fontFamily=Helvetica;fontSize=12;fontColor=#000000;align=center;" vertex="1" parent="i0STGZXZ2wKi7M2kmN0H-39">
          <mxGeometry x="240" y="20" width="80" height="60" as="geometry" />
        </mxCell>
        <mxCell id="i0STGZXZ2wKi7M2kmN0H-42" value="" style="rhombus;whiteSpace=wrap;html=1;fontFamily=Helvetica;fontSize=12;fontColor=#000000;align=center;" vertex="1" parent="i0STGZXZ2wKi7M2kmN0H-39">
          <mxGeometry x="360" y="30" width="40" height="40" as="geometry" />
        </mxCell>
        <mxCell id="i0STGZXZ2wKi7M2kmN0H-43" value="Antes do antendimento" style="text;html=1;align=center;verticalAlign=middle;resizable=0;points=[];autosize=1;strokeColor=none;fillColor=none;fontStyle=1" vertex="1" parent="1">
          <mxGeometry x="120" y="90" width="150" height="30" as="geometry" />
        </mxCell>
        <mxCell id="i0STGZXZ2wKi7M2kmN0H-44" value="Depois do antendimento" style="text;html=1;align=center;verticalAlign=middle;resizable=0;points=[];autosize=1;strokeColor=none;fillColor=none;fontStyle=1" vertex="1" parent="1">
          <mxGeometry x="120" y="500" width="150" height="30" as="geometry" />
        </mxCell>
        <mxCell id="i0STGZXZ2wKi7M2kmN0H-48" value="Notificação ao prestador de serviço" style="rounded=0;whiteSpace=wrap;html=1;" vertex="1" parent="1">
          <mxGeometry x="360.2105263157896" y="380" width="120" height="60" as="geometry" />
        </mxCell>
        <mxCell id="i0STGZXZ2wKi7M2kmN0H-47" style="edgeStyle=orthogonalEdgeStyle;rounded=0;orthogonalLoop=1;jettySize=auto;html=1;exitX=0.5;exitY=1;exitDx=0;exitDy=0;" edge="1" parent="1" source="i0STGZXZ2wKi7M2kmN0H-46" target="i0STGZXZ2wKi7M2kmN0H-48">
          <mxGeometry relative="1" as="geometry">
            <mxPoint x="420.2105263157896" y="410" as="targetPoint" />
          </mxGeometry>
        </mxCell>
        <mxCell id="i0STGZXZ2wKi7M2kmN0H-51" value="Dúvidas:&lt;div&gt;Caixa amarela: o cliente tem que pagar com antecedencia ou não?&lt;/div&gt;" style="text;html=1;align=center;verticalAlign=middle;resizable=0;points=[];autosize=1;strokeColor=none;fillColor=none;" vertex="1" parent="1">
          <mxGeometry x="130" y="23" width="380" height="40" as="geometry" />
        </mxCell>
      </root>
    </mxGraphModel>
  </diagram>
</mxfile>
